<?xml version="1.0" standalone="no"?>
<!DOCTYPE svg PUBLIC "-//W3C//DTD SVG 20010904//EN"
 "http://www.w3.org/TR/2001/REC-SVG-20010904/DTD/svg10.dtd">
<svg version="1.0" xmlns="http://www.w3.org/2000/svg"
 width="80.000000pt" height="80.000000pt" viewBox="0 0 80.000000 80.000000"
 preserveAspectRatio="xMidYMid meet">
<metadata>
Created by potrace 1.11, written by Peter Selinger 2001-2013
</metadata>
<g transform="translate(0.000000,80.000000) scale(0.100000,-0.100000)"
fill="#000000" stroke="none">
<path d="M0 400 l0 -400 400 0 400 0 0 400 0 400 -400 0 -400 0 0 -400z m535
268 c-22 -107 -22 -107 -63 -97 -20 5 -52 9 -69 9 -23 0 -33 5 -33 15 0 11 13
15 54 15 53 0 55 1 83 45 15 25 29 45 31 45 2 0 1 -15 -3 -32z m-266 -118
c-16 -13 -16 -17 -3 -34 16 -23 19 -62 4 -71 -6 -4 -10 6 -10 22 0 31 -16 53
-37 53 -19 0 -53 -60 -53 -92 0 -35 44 -88 60 -72 9 9 5 18 -14 37 -29 29 -30
35 -16 57 8 12 10 9 10 -11 0 -38 23 -54 58 -41 38 13 61 0 27 -16 -39 -18
-34 -80 8 -95 25 -9 44 1 51 28 3 13 13 31 22 39 17 18 54 22 54 6 0 -5 -7
-10 -15 -10 -19 0 -31 -48 -18 -69 6 -9 19 -17 30 -19 11 -2 26 -15 33 -30 11
-22 14 -24 17 -10 3 14 15 18 45 18 52 0 78 22 78 67 0 23 5 33 15 33 22 0 39
43 31 82 -3 19 -19 49 -35 68 -28 34 -28 34 -40 12 -10 -19 -58 -52 -76 -52
-16 0 -1 19 25 30 35 15 49 48 27 65 -10 7 -13 16 -7 25 7 11 17 8 50 -15 51
-35 90 -100 90 -148 0 -37 -18 -87 -31 -87 -4 0 -10 -13 -14 -30 -10 -44 -42
-78 -81 -86 -33 -6 -34 -7 -18 -25 16 -18 16 -19 -10 -19 -35 0 -83 25 -90 48
-8 24 -63 46 -108 43 -31 -2 -44 3 -69 28 -17 18 -44 38 -60 47 -46 23 -62 56
-57 116 5 47 10 57 51 94 46 41 46 42 42 95 l-5 54 29 -60 c27 -58 28 -61 10
-75z m77 65 c19 -45 19 -45 -16 -45 -20 0 -30 5 -30 15 0 8 5 15 10 15 6 0 10
11 10 25 0 34 8 31 26 -10z m68 -78 c-3 -12 -13 -30 -21 -39 -19 -22 -72 -33
-86 -19 -8 8 -3 11 19 11 35 0 74 32 74 61 0 11 5 17 10 14 6 -4 8 -16 4 -28z
m106 3 c0 -5 -11 -10 -25 -10 -13 0 -28 -8 -34 -17 -5 -10 -13 -15 -17 -10
-12 12 27 47 53 47 12 0 23 -4 23 -10z m-105 -120 c-12 -46 -21 -41 -21 11 0
45 1 49 13 32 8 -10 11 -28 8 -43z m48 21 c3 -11 19 -22 43 -29 l39 -10 -37
-1 c-27 -1 -41 5 -52 21 -18 25 -20 38 -7 38 5 0 11 -8 14 -19z m137 -6 c-7
-9 -10 -27 -6 -45 7 -36 -11 -41 -20 -6 -6 26 10 66 28 66 7 0 6 -5 -2 -15z
m-240 -46 c0 -27 -18 -59 -32 -59 -9 0 -9 3 0 12 7 7 12 27 12 46 0 19 4 31
10 27 6 -3 10 -15 10 -26z m201 -50 c11 -11 18 -23 15 -26 -3 -3 -12 2 -21 11
-9 9 -32 16 -51 16 -19 0 -34 5 -34 10 0 19 69 11 91 -11z m-97 -34 c3 -9 19
-15 41 -15 19 0 35 -4 35 -10 0 -16 -62 -11 -82 7 -19 17 -24 33 -9 33 5 0 11
-7 15 -15z"/>
</g>
</svg>
